<svg version="1.1" id="logo" xmlns="http://www.w3.org/2000/svg" xmlns:xlink="http://www.w3.org/1999/xlink" x="0px" y="0px" viewBox="-929 231 100 100" enable-background="new -929 231 100 100" xml:space="preserve">
    <path class="st0" fill="#800F0F" d="M-877.6,272c0.8,0,3.7-3.3,3.4-4.1c-0.3-0.8-10.8-5.8-10.8-5.8s-3.1-1.5-5.6-1.7c-2.6-0.2-10.1,0.7-10.1,0.7
l-20.5,3.8c0,0-4.2,0.5-4.5,1.6c-0.3,1.1,0,11.6,4.1,18.3c4.1,6.7,5.7,9.6,14.5,10c2.4,0.1,3.7-6,4.4-8.4c0.5-1.9,0.9-4.1,0.7-5.8
				c-0.1-0.5-0.7-0.9-0.4-1.5c0.3-0.5,3.7-0.4,3.3,1.2c-0.1,0.2-0.3,0.8,0,1.9c0.5,2.3,4.3,13.5,10.6,17c6.4,3.5,19.4,3.3,22.2-0.6
				s3.5-12.2,3.7-14.5c2.7-2.8,20.7-7.7,20.7-7.7s1.9-0.4,3-1.7c1.2-1.2,2.9-3.5,3.3-3.4c0.4,1.6,0.1,6.1,1.2,7c1.1,1,1.3,0.2,1.9-1.9
				c0.8-2.9-0.2-3.1-0.8-4.4c-0.6-1.3,0.6-2.3-1.2-3.5c-1.8-1.2-3-0.2-4.8,0.4c-1.7,0.6-20.3,6.7-22.4,7c-2.1,0.3-13.5-0.8-18.6-1.1
				s-15.8-1.6-18.6-0.3c-1.2,0.6-2,0.3-2.6,0.1c-0.6-0.1-2-0.6-2.9-1.9c-1.2-1.6-10.1-3.7-10.1-3.7l11.3-1.9c0,0,2.8-0.3,3.9-0.8
				c1.2-0.4,5.9-3.4,8.4-3.1c2.6,0.3,7,2.4,10.1,5.9C-877.8,272.7-877.6,272-877.6,272z" />
  </svg> 